HIERARCHY
ROOT joint_Root
{
	OFFSET 0.0 0.0 0.0
	CHANNELS 6 Xposition Yposition Zposition Zrotation Xrotation Yrotation 
	JOINT Hips
	{
		OFFSET -17.1583 93.1646 452.98
		CHANNELS 6 Xposition Yposition Zposition Zrotation Xrotation Yrotation 
		JOINT Spine
		{
			OFFSET 15.7357 0.0 0.0
			CHANNELS 6 Xposition Yposition Zposition Zrotation Xrotation Yrotation 
			JOINT Chest
			{
				OFFSET 8.98455 -0.406207 0.0
				CHANNELS 6 Xposition Yposition Zposition Zrotation Xrotation Yrotation 
				JOINT Neck
				{
					OFFSET 16.3773 0.0 0.0
					CHANNELS 6 Xposition Yposition Zposition Zrotation Xrotation Yrotation 
					JOINT Head
					{
						OFFSET 6.45672 0.0 0.0
						CHANNELS 6 Xposition Yposition Zposition Zrotation Xrotation Yrotation 
						End Site
						{
							OFFSET 0.0 0.0 0.0
						}
					}
				}
				JOINT Shoulder_L
				{
					OFFSET 12.9942 -0.242716 4.98039
					CHANNELS 6 Xposition Yposition Zposition Zrotation Xrotation Yrotation 
					JOINT UpperArm_L
					{
						OFFSET 5.34809 0.0 0.0
						CHANNELS 6 Xposition Yposition Zposition Zrotation Xrotation Yrotation 
						JOINT LowerArm_L
						{
							OFFSET 24.3286 1.87007e-05 0.0
							CHANNELS 6 Xposition Yposition Zposition Zrotation Xrotation Yrotation 
							JOINT Hand_L
							{
								OFFSET 22.2916 0.0 0.0
								CHANNELS 6 Xposition Yposition Zposition Zrotation Xrotation Yrotation 
								End Site
								{
									OFFSET 0.0 0.0 0.0
								}
							}
						}
					}
				}
				JOINT Shoulder_R
				{
					OFFSET 12.9945 -0.242716 -4.98039
					CHANNELS 6 Xposition Yposition Zposition Zrotation Xrotation Yrotation 
					JOINT UpperArm_R
					{
						OFFSET -5.34813 0.0 0.0
						CHANNELS 6 Xposition Yposition Zposition Zrotation Xrotation Yrotation 
						JOINT LowerArm_R
						{
							OFFSET -24.3289 0.000322201 0.0
							CHANNELS 6 Xposition Yposition Zposition Zrotation Xrotation Yrotation 
							JOINT Hand_R
							{
								OFFSET -22.2915 -0.000108084 0.0
								CHANNELS 6 Xposition Yposition Zposition Zrotation Xrotation Yrotation 
								End Site
								{
									OFFSET 0.0 0.0 0.0
								}
							}
						}
					}
				}
			}
		}
		JOINT UpperLeg_L
		{
			OFFSET -2.19248 -6.46944 0.0
			CHANNELS 6 Xposition Yposition Zposition Zrotation Xrotation Yrotation 
			JOINT LowerLeg_L
			{
				OFFSET 39.0811 0.0 -1.23785e-05
				CHANNELS 6 Xposition Yposition Zposition Zrotation Xrotation Yrotation 
				JOINT Foot_L
				{
					OFFSET 40.9854 0.0 -1.26872e-05
					CHANNELS 6 Xposition Yposition Zposition Zrotation Xrotation Yrotation 
					JOINT Toes_L
					{
						OFFSET 11.7543 0.0 0.0
						CHANNELS 6 Xposition Yposition Zposition Zrotation Xrotation Yrotation 
						End Site
						{
							OFFSET 0.0 0.0 0.0
						}
					}
				}
			}
		}
		JOINT UpperLeg_R
		{
			OFFSET -2.19251 6.46944 0.0
			CHANNELS 6 Xposition Yposition Zposition Zrotation Xrotation Yrotation 
			JOINT LowerLeg_R
			{
				OFFSET -39.0811 -0.00228153 -0.0401928
				CHANNELS 6 Xposition Yposition Zposition Zrotation Xrotation Yrotation 
				JOINT Foot_R
				{
					OFFSET -40.9854 0.0 0.0
					CHANNELS 6 Xposition Yposition Zposition Zrotation Xrotation Yrotation 
					JOINT Toes_R
					{
						OFFSET -11.7543 0.0 0.0
						CHANNELS 6 Xposition Yposition Zposition Zrotation Xrotation Yrotation 
						End Site
						{
							OFFSET 0.0 0.0 0.0
						}
					}
				}
			}
		}
	}
}
MOTION
Frames:	7
Frame Time:	0.0333333
0.000000 0.000000 0.000000 0.000000 0.000000 -0.000000 -5.177650 92.336200 -1.037620 84.974200 -2.842890 -0.091477 15.735700 0.000005 -0.000001 93.878500 88.173500 -90.679000 8.984550 -0.406207 -0.000000 -4.110940 -0.084396 6.399190 16.377300 -0.000001 -0.000001 9.197720 5.011960 -10.738200 6.456720 -0.000001 -0.000000 8.577550 3.457840 -16.532100 12.994200 -0.242716 4.980390 -92.906200 8.258860 -70.536200 5.348090 -0.000007 -0.000001 -72.448400 -21.916400 1.686070 24.328600 0.000019 0.000005 33.484300 -30.751400 -127.702000 22.291600 -0.000001 0.000005 60.302800 4.301130 19.782200 12.994500 -0.242716 -4.980390 88.202700 5.455370 -71.734100 -5.348130 -0.000001 -0.000004 -68.869000 29.759200 -3.948580 -24.328900 0.000322 -0.000009 2.471740 8.047780 -17.143300 -22.291500 -0.000108 -0.000004 0.041855 5.253330 1.344570 -2.192480 -6.469440 -0.000000 -171.484000 0.373689 -6.285050 39.081100 -0.000007 -0.000012 0.232036 -0.494481 25.138800 40.985400 -0.000006 -0.000013 -2.825740 6.260040 -74.093200 11.754300 -0.000000 0.000003 0.000734 0.154186 -10.323700 -2.192510 6.469440 -0.000001 -169.570000 5.462190 -179.557000 -39.081100 -0.002282 -0.040193 0.071150 -0.309192 12.370800 -40.985400 0.000008 0.000006 5.060840 1.894350 -68.891500 -11.754300 -0.000006 -0.000006 -0.008298 0.258115 -6.090160
0.000000 0.000000 0.000000 0.000000 0.000000 -0.000000 -5.176320 92.326500 -1.046820 84.930500 -2.873550 -0.074686 15.735700 0.000005 -0.000001 94.499500 88.173700 -91.314000 8.984550 -0.406207 -0.000000 -4.115560 -0.043655 6.372550 16.377300 -0.000001 -0.000001 9.335830 4.993850 -10.715200 6.456720 -0.000001 -0.000000 8.507450 3.379770 -16.420800 12.994200 -0.242716 4.980390 -92.922900 8.306780 -70.536100 5.348090 -0.000007 -0.000001 -71.866300 -20.236900 1.950440 24.328600 0.000019 0.000005 41.913600 -36.642800 -123.617000 22.291600 -0.000001 0.000005 62.106100 4.496090 16.671900 12.994500 -0.242716 -4.980390 88.213400 5.428470 -71.751700 -5.348130 -0.000001 -0.000004 -69.006900 29.701700 -3.830490 -24.328900 0.000322 -0.000009 2.458120 7.956950 -17.236200 -22.291500 -0.000108 -0.000004 -0.007239 5.253580 1.338110 -2.192480 -6.469440 -0.000000 -171.462000 0.328921 -6.299720 39.081100 -0.000007 -0.000012 0.240359 -0.510441 25.215500 40.985400 -0.000006 -0.000013 -2.653680 6.220250 -74.181000 11.754300 -0.000000 0.000003 0.000758 0.153712 -10.342900 -2.192510 6.469440 -0.000001 -169.518000 5.462090 -179.564000 -39.081100 -0.002282 -0.040193 0.072215 -0.313070 12.408300 -40.985400 0.000008 0.000006 5.133940 1.857060 -68.921900 -11.754300 -0.000006 -0.000006 -0.008480 0.259576 -6.030430
0.000000 0.000000 0.000000 0.000000 0.000000 -0.000000 -5.166220 92.327800 -1.045320 84.927900 -2.889230 -0.007951 15.735700 0.000005 -0.000001 95.118200 88.148600 -91.932000 8.984550 -0.406207 -0.000000 -4.069990 0.001297 6.375580 16.377300 -0.000001 -0.000001 9.374990 4.983800 -10.836500 6.456720 -0.000001 -0.000000 8.557260 3.306690 -16.429100 12.994200 -0.242716 4.980390 -92.923900 8.306240 -70.528900 5.348090 -0.000007 -0.000001 -71.307500 -19.031700 1.960380 24.328600 0.000019 0.000005 50.024000 -41.358300 -118.985000 22.291600 -0.000001 0.000005 63.334100 4.687250 13.388300 12.994500 -0.242716 -4.980390 88.222100 5.402120 -71.752300 -5.348130 -0.000001 -0.000004 -69.018300 29.836400 -3.800670 -24.328900 0.000322 -0.000009 2.454800 7.932230 -17.264500 -22.291500 -0.000108 -0.000004 0.028620 5.253170 1.348810 -2.192480 -6.469440 -0.000000 -171.446000 0.329882 -6.229380 39.081100 -0.000007 -0.000012 0.234416 -0.497524 25.228600 40.985400 -0.000006 -0.000013 -2.799770 6.253500 -74.183500 11.754300 -0.000000 0.000003 0.000643 0.155985 -10.250600 -2.192510 6.469440 -0.000001 -169.536000 5.419240 -179.499000 -39.081100 -0.002282 -0.040193 0.071301 -0.308343 12.430700 -40.985400 0.000008 0.000006 5.059790 1.872840 -68.917500 -11.754300 -0.000006 -0.000006 -0.008200 0.257323 -6.122470
0.000000 0.000000 0.000000 0.000000 0.000000 -0.000000 -5.152920 92.316900 -1.052290 84.941200 -2.822380 0.021481 15.735700 0.000005 -0.000001 94.501100 88.141900 -91.288800 8.984550 -0.406207 -0.000000 -4.051960 -0.039542 6.426230 16.377300 -0.000001 -0.000001 9.428970 4.983880 -11.022000 6.456720 -0.000001 -0.000000 8.678780 3.278290 -16.665400 12.994200 -0.242716 4.980390 -92.912100 8.277130 -70.538800 5.348090 -0.000007 -0.000001 -70.904400 -18.412300 1.741960 24.328600 0.000019 0.000005 56.201500 -44.215200 -115.024000 22.291600 -0.000001 0.000005 64.515700 4.799420 11.330000 12.994500 -0.242716 -4.980390 88.240900 5.353080 -71.778800 -5.348130 -0.000001 -0.000004 -68.997500 29.777100 -3.843750 -24.328900 0.000322 -0.000009 2.468800 8.021860 -17.175800 -22.291500 -0.000108 -0.000004 -0.008828 5.253910 1.329330 -2.192480 -6.469440 -0.000000 -171.477000 0.367352 -6.263990 39.081100 -0.000007 -0.000012 0.238131 -0.503818 25.298300 40.985400 -0.000006 -0.000013 -2.730950 6.276140 -74.161400 11.754300 -0.000000 0.000003 0.000797 0.152906 -10.375600 -2.192510 6.469440 -0.000001 -169.538000 5.495080 -179.524000 -39.081100 -0.002282 -0.040193 0.074202 -0.319380 12.510700 -40.985400 0.000008 0.000006 5.175600 1.812120 -68.964600 -11.754300 -0.000006 -0.000006 -0.008086 0.256400 -6.160170
0.000000 0.000000 0.000000 0.000000 0.000000 -0.000000 -5.144110 92.314300 -1.064770 84.925000 -2.729590 0.120002 15.735700 0.000005 -0.000001 93.779300 88.116300 -90.511500 8.984550 -0.406207 -0.000000 -3.995990 -0.086963 6.535520 16.377300 -0.000001 -0.000001 9.558270 5.021520 -11.196400 6.456720 -0.000001 -0.000000 8.749510 3.257180 -16.995700 12.994200 -0.242716 4.980390 -92.909200 8.285320 -70.574700 5.348090 -0.000007 -0.000001 -70.763100 -18.184500 1.341310 24.328600 0.000019 0.000005 57.248100 -44.539000 -114.284000 22.291600 -0.000001 0.000005 64.526800 4.801620 11.286100 12.994500 -0.242716 -4.980390 88.244700 5.337680 -71.767100 -5.348130 -0.000001 -0.000004 -68.899200 29.694700 -3.903870 -24.328900 0.000322 -0.000009 2.469210 8.069640 -17.083300 -22.291500 -0.000108 -0.000004 -0.027373 5.251880 1.382980 -2.192480 -6.469440 -0.000000 -171.455000 0.385719 -6.206300 39.081100 -0.000007 -0.000012 0.237680 -0.501986 25.337000 40.985400 -0.000006 -0.000013 -2.676620 6.331110 -74.212400 11.754300 -0.000000 0.000003 0.000712 0.154635 -10.305400 -2.192510 6.469440 -0.000001 -169.512000 5.345560 -179.462000 -39.081100 -0.002282 -0.040193 0.074562 -0.319842 12.554800 -40.985400 0.000008 0.000006 5.111050 1.603690 -68.978400 -11.754300 -0.000006 -0.000006 -0.008107 0.256569 -6.153270
0.000000 0.000000 0.000000 0.000000 0.000000 -0.000000 -5.143160 92.308800 -1.078840 84.935600 -2.631130 0.169770 15.735700 0.000005 -0.000001 92.469100 88.099400 -89.151400 8.984550 -0.406207 -0.000000 -3.954610 -0.175393 6.632430 16.377300 -0.000001 -0.000001 9.595110 5.075500 -11.344800 6.456720 -0.000001 -0.000000 8.835310 3.370920 -17.253000 12.994200 -0.242716 4.980390 -92.904700 8.247710 -70.521300 5.348090 -0.000007 -0.000001 -71.082800 -18.626300 0.826153 24.328600 0.000019 0.000005 52.493800 -42.331000 -117.332000 22.291600 -0.000001 0.000005 62.519700 4.733160 12.564600 12.994500 -0.242716 -4.980390 88.253400 5.311410 -71.767900 -5.348130 -0.000001 -0.000004 -68.826200 29.585500 -3.969840 -24.328900 0.000322 -0.000009 2.487770 8.166060 -17.014200 -22.291500 -0.000108 -0.000004 0.042126 5.252200 1.374670 -2.192480 -6.469440 -0.000000 -171.460000 0.405238 -6.214140 39.081100 -0.000007 -0.000012 0.238748 -0.503250 25.380600 40.985400 -0.000006 -0.000013 -2.652750 6.413550 -74.186800 11.754300 -0.000000 0.000003 0.000753 0.153805 -10.339100 -2.192510 6.469440 -0.000001 -169.510000 5.452340 -179.430000 -39.081100 -0.002282 -0.040193 0.075992 -0.326287 12.553800 -40.985400 0.000008 0.000006 5.266840 1.557120 -69.024000 -11.754300 -0.000006 -0.000006 -0.008577 0.260342 -5.999150
0.000000 0.000000 0.000000 0.000000 0.000000 -0.000000 -5.131730 92.311900 -1.083520 84.946500 -2.565070 0.247940 15.735700 0.000005 -0.000001 92.501000 88.077000 -89.152100 8.984550 -0.406207 -0.000000 -3.909890 -0.173197 6.694660 16.377300 -0.000001 -0.000001 9.664600 5.067390 -11.401000 6.456720 -0.000001 -0.000000 8.861890 3.396790 -17.352000 12.994200 -0.242716 4.980390 -92.885100 8.192940 -70.524200 5.348090 -0.000007 -0.000001 -71.791300 -19.460500 0.210376 24.328600 0.000019 0.000005 44.620900 -38.179500 -122.061000 22.291600 -0.000001 0.000005 59.348400 4.572060 15.407200 12.994500 -0.242716 -4.980390 88.247000 5.315260 -71.717100 -5.348130 -0.000001 -0.000004 -68.747500 29.571900 -3.941200 -24.328900 0.000322 -0.000009 2.501000 8.193200 -17.046600 -22.291500 -0.000108 -0.000004 -0.038275 5.253470 1.340770 -2.192480 -6.469440 -0.000000 -171.463000 0.391358 -6.155750 39.081100 -0.000007 -0.000012 0.237353 -0.500321 25.380100 40.985400 -0.000006 -0.000013 -2.710020 6.513300 -74.157300 11.754300 -0.000000 0.000003 0.000790 0.153059 -10.369400 -2.192510 6.469440 -0.000001 -169.524000 5.373830 -179.388000 -39.081100 -0.002282 -0.040193 0.075703 -0.323861 12.596100 -40.985400 0.000008 0.000006 5.136120 1.407900 -69.001900 -11.754300 -0.000006 -0.000006 -0.008126 0.256727 -6.146850
